# xmcd
#
# Track frame offsets:
# 150
# 13342
# 28141
# 51837
# 67470
# 85871
# 104183
# 119357
# 135143
# 152057
# 167764
#
# Disc length: 2504 seconds
#
#
# Revision: 3
# Processed by: cddbd v1.5.2PL0 Copyright (c) Steve Scherf et al.
# Submitted via: FreeRIP 2.951 
#
DISCID=9b09c60b
DTITLE=Nik and Jay - 3: Fresh Fri Fly
DYEAR=2006
DGENRE=Pop
TTITLE0=Alt Hvad Du Gør Mig Til
TTITLE1=Boing!
TTITLE2=Når Et Lys Slukkes
TTITLE3=I Love Ya
TTITLE4=Nu Er Det For Sent
TTITLE5=Fresh, Fri, Fly
TTITLE6=Årstiderne Skifter
TTITLE7=Op På Hesten
TTITLE8=Et Sidste Kys
TTITLE9=Gi'r Dig Mer'
TTITLE10=Vidne Til Det Hele
EXTD=YEAR: 2006
EXTT0=
EXTT1=
EXTT2=
EXTT3=
EXTT4=
EXTT5=
EXTT6=
EXTT7=
EXTT8=
EXTT9=
EXTT10=
PLAYORDER=
